<?xml version="1.0" encoding="utf-8"?>
<!-- Generator: Adobe Illustrator 14.0.0, SVG Export Plug-In . SVG Version: 6.00 Build 43363)  -->
<!DOCTYPE svg PUBLIC "-//W3C//DTD SVG 1.1//EN" "http://www.w3.org/Graphics/SVG/1.1/DTD/svg11.dtd">
<svg version="1.1" id="Layer_1" xmlns="http://www.w3.org/2000/svg" xmlns:xlink="http://www.w3.org/1999/xlink" x="0px" y="0px"
	 width="180px" height="54px" viewBox="0 0 180 54" enable-background="new 0 0 180 54" xml:space="preserve">
<g>
	<path fill="#58595B" d="M127.849,18.763c-1.53,0-2.781-1.225-2.781-2.77c0-1.538,1.251-2.771,2.781-2.771
		c1.52,0,2.768,1.233,2.768,2.771C130.616,17.538,129.368,18.763,127.849,18.763 M127.849,13.753c-1.25,0-2.227,1.015-2.227,2.24
		c0,1.225,0.977,2.23,2.227,2.23c1.236,0,2.213-1.006,2.213-2.23C130.062,14.768,129.085,13.753,127.849,13.753 M128.338,17.506
		l-0.835-1.296h-0.047v1.296h-0.594v-2.996c0.234-0.118,0.532-0.188,0.845-0.188c0.824,0,1.178,0.476,1.178,0.936
		c0,0.484-0.313,0.779-0.748,0.898l0.948,1.349H128.338z M127.675,14.807c-0.086,0-0.166,0.016-0.219,0.031v0.975h0.147
		c0.438,0,0.671-0.123,0.671-0.545C128.274,14.876,127.945,14.807,127.675,14.807"/>
	<polygon fill="#58595B" points="7.91,16.68 7.91,34.085 4.246,34.085 4.246,16.68 0.55,16.68 0.55,14.229 11.633,14.229
		11.633,16.68 	"/>
	<path fill="#58595B" d="M18.878,34.374c-4.358,0-6.465-3.465-6.465-8.055c0-4.646,2.107-8.081,6.465-8.081
		c4.388,0,6.467,3.435,6.467,8.081C25.345,30.909,23.238,34.374,18.878,34.374 M18.878,20.461c-2.482,0-2.973,2.857-2.973,5.829
		c0,2.946,0.549,5.688,2.973,5.688c2.511,0,2.974-2.741,2.974-5.688C21.852,23.318,21.39,20.461,18.878,20.461"/>
	<path fill="#58595B" d="M43.933,34.085h-3.174l-2.685-9.758c-0.288-1.009-0.318-1.991-0.318-1.991h-0.058
		c0,0-0.058,0.982-0.347,1.991l-2.742,9.758h-3.176l-4.329-15.558h3.551l2.28,10.073c0.259,1.183,0.29,2.049,0.29,2.049h0.056
		c0,0,0.087-0.866,0.404-2.049l2.742-10.073h2.944l2.626,10.073c0.26,0.981,0.375,2.049,0.375,2.049h0.057
		c0,0,0.088-1.067,0.319-2.077l2.395-10.045h3.118L43.933,34.085z"/>
	<path fill="#58595B" d="M59.635,34.085V23.06c0-1.271-0.579-2.599-2.8-2.599c-1.155,0-1.761,0.173-2.425,0.433v13.191h-3.52V19.364
		c1.471-0.693,3.463-1.125,6.09-1.125c4.647,0,6.177,2.25,6.177,4.763v11.083H59.635z"/>
	<path fill="#58595B" d="M71.007,34.374c-2.366,0-3.838-0.435-4.906-1.125l0.895-2.57c0.692,0.463,1.817,0.923,3.319,0.923
		c1.962,0,3.176-1.21,3.176-3.058c0-1.5-0.866-2.425-3.089-3.35c-3.233-1.356-4.099-3.492-4.099-5.426
		c0-3.146,2.28-5.832,5.945-5.832c1.992,0,3.464,0.493,4.359,1.127l-0.809,2.252c-0.692-0.434-1.79-0.896-3.058-0.896
		c-1.819,0-2.859,1.125-2.859,2.887c0,1.731,1.271,2.54,3.004,3.261c3.896,1.645,4.473,3.838,4.473,5.742
		C77.358,31.833,74.702,34.374,71.007,34.374"/>
	<path fill="#58595B" d="M86.622,34.402c-4.156,0-6.033-1.818-6.033-5.254V18.527h3.522v10.825c0,1.47,0.808,2.625,2.626,2.625
		c1.011,0,1.731-0.174,2.338-0.52V18.527h3.519V33.16C91.298,33.855,89.336,34.402,86.622,34.402"/>
	<path fill="#58595B" d="M98.226,15.842c-1.069,0-1.933-0.778-1.933-1.731c0-0.982,0.863-1.76,1.933-1.76
		c1.099,0,1.935,0.778,1.935,1.76C100.16,15.063,99.324,15.842,98.226,15.842 M96.466,18.527h3.521v15.558h-3.521V18.527z"/>
	<path fill="#58595B" d="M109.021,34.257c-3.062,0-4.271-2.048-4.271-4.215v-9.265h-1.73v-2.25h1.73v-3.435l3.52-0.981v4.417h2.544
		v2.25h-2.544v9.095c0,1.21,0.493,2.019,1.706,2.019c0.315,0,0.548-0.058,0.838-0.144v2.192
		C110.493,34.085,109.857,34.257,109.021,34.257"/>
	<path fill="#58595B" d="M116.236,27.591c0.291,2.887,1.676,4.33,4.243,4.33c1.789,0,3.088-0.433,3.926-0.866l0.837,2.221
		c-1.097,0.607-2.771,1.099-5.136,1.099c-4.418,0-7.217-2.859-7.217-8.112c0-5.08,2.569-8.023,6.638-8.023
		c4.128,0,6.379,2.743,6.235,7.966L116.236,27.591z M119.412,20.403c-2.049,0-3.464,1.674-3.377,5.398l6.437-0.982
		C122.472,21.673,121.347,20.403,119.412,20.403"/>
	<path fill="#808285" d="M12.411,46.71l-0.9-8.216c-0.071-0.603-0.071-1.13-0.071-1.13h-0.029c0,0-0.1,0.527-0.271,1.13L8.853,46.71
		H8.124l-2.273-8.216c-0.156-0.57-0.257-1.13-0.257-1.13H5.566c0,0-0.028,0.542-0.086,1.116L4.566,46.71H3.836l1.23-9.832h0.957
		l2.201,7.919c0.186,0.655,0.257,1.112,0.257,1.112H8.51c0,0,0.057-0.457,0.243-1.112l2.228-7.919h0.959l1.243,9.832H12.411z"/>
	<path fill="#808285" d="M17.971,46.869c-1.843,0-2.886-1.344-2.886-2.916v-7.075h0.813v7.075c0,1.416,1.001,2.258,2.115,2.258
		c1.114,0,2.115-0.842,2.115-2.258v-7.075h0.729v7.075C20.858,45.525,19.814,46.869,17.971,46.869"/>
	<path fill="#808285" d="M29.232,46.71l-4.645-7.988c-0.386-0.671-0.686-1.286-0.686-1.286h-0.029c0,0,0.043,0.643,0.043,1.301
		v7.974H23.23v-9.832h1.043l4.53,7.834c0.373,0.644,0.587,1.099,0.587,1.099h0.042c0,0-0.058-0.472-0.058-1.144v-7.789h0.687v9.832
		H29.232z"/>
	<rect x="32.49" y="36.878" fill="#808285" width="0.815" height="9.832"/>
	<path fill="#808285" d="M38.98,46.854c-2.202,0-3.589-2.2-3.589-5.061c0-2.788,1.357-5.058,3.573-5.058
		c0.859,0,1.429,0.23,1.831,0.516l-0.243,0.483c-0.301-0.215-0.83-0.428-1.474-0.428c-2.071,0-2.829,2.2-2.829,4.486
		c0,2.36,0.828,4.46,2.815,4.46c0.629,0,1.086-0.172,1.488-0.413l0.243,0.485C40.408,46.64,39.722,46.854,38.98,46.854"/>
	<rect x="42.537" y="36.878" fill="#808285" width="0.815" height="9.832"/>
	<path fill="#808285" d="M47.082,42.481l-0.501-0.043v4.271h-0.8v-9.445c0.471-0.284,1.257-0.528,2.187-0.528
		c2.114,0,3.144,1.155,3.144,2.886C51.111,41.324,49.94,42.726,47.082,42.481 M47.882,37.252c-0.615,0-1.071,0.125-1.301,0.228
		v4.431l0.473,0.042c2.386,0.216,3.258-0.844,3.258-2.356C50.312,38.064,49.569,37.252,47.882,37.252"/>
	<path fill="#808285" d="M57.701,46.71l-1.086-3.357h-3.602l-1.114,3.357h-0.772l3.401-9.832h0.643l3.373,9.832H57.701z
		 M55.157,38.85c-0.257-0.813-0.301-1.199-0.301-1.199h-0.028c0,0-0.071,0.372-0.343,1.187l-1.3,3.987h3.258L55.157,38.85z"/>
	<polygon fill="#808285" points="60.159,46.71 60.159,36.878 60.973,36.878 60.973,46.153 64.159,46.153 64.159,46.71 	"/>
	<path fill="#808285" d="M71.478,46.854c-1.059,0-1.659-0.215-2.144-0.528l0.258-0.572c0.398,0.256,0.928,0.473,1.77,0.473
		c1.287,0,2.116-0.857,2.116-2.173c0-1.001-0.543-1.585-1.901-2.102c-1.687-0.628-2.145-1.643-2.145-2.601
		c0-1.401,1.002-2.615,2.602-2.615c0.814,0,1.471,0.23,1.873,0.516l-0.229,0.529c-0.344-0.23-0.916-0.474-1.6-0.474
		c-1.187,0-1.844,0.813-1.844,2.029c0,1.157,0.871,1.642,1.786,1.987c1.973,0.714,2.272,1.899,2.272,2.7
		C74.292,45.71,73.092,46.854,71.478,46.854"/>
	<path fill="#808285" d="M79.394,46.854c-2.443,0-3.401-2.23-3.401-5.061c0-2.8,0.958-5.058,3.401-5.058
		c2.459,0,3.417,2.258,3.417,5.058C82.81,44.624,81.853,46.854,79.394,46.854 M79.394,37.293c-2.071,0-2.585,2.329-2.585,4.487
		c0,2.13,0.442,4.459,2.585,4.459c2.172,0,2.602-2.329,2.602-4.459C81.996,39.622,81.481,37.293,79.394,37.293"/>
	<polygon fill="#808285" points="85.653,37.436 85.653,41.324 88.826,41.324 88.826,41.881 85.653,41.881 85.653,46.71
		84.839,46.71 84.839,36.878 89.141,36.878 89.141,37.436 	"/>
	<polygon fill="#808285" points="93.042,37.436 93.042,46.71 92.228,46.71 92.228,37.436 90.155,37.436 90.155,36.878
		95.116,36.878 95.116,37.436 	"/>
	<path fill="#808285" d="M104.117,46.71h-0.714l-1.856-7.704c-0.144-0.614-0.215-1.127-0.215-1.127h-0.029
		c0,0-0.043,0.5-0.202,1.127l-1.885,7.704h-0.699l-2.346-9.832h0.871l1.617,7.789c0.114,0.571,0.199,1.13,0.199,1.13h0.028
		c0,0,0.086-0.559,0.229-1.13l1.887-7.789h0.686l1.872,7.789c0.131,0.513,0.216,1.13,0.216,1.13h0.028c0,0,0.084-0.617,0.2-1.13
		l1.686-7.789h0.771L104.117,46.71z"/>
	<path fill="#808285" d="M113.565,46.71l-1.086-3.357h-3.603l-1.115,3.357h-0.771l3.401-9.832h0.643l3.372,9.832H113.565z
		 M111.021,38.85c-0.257-0.813-0.303-1.199-0.303-1.199h-0.025c0,0-0.072,0.372-0.343,1.187l-1.303,3.987h3.26L111.021,38.85z"/>
	<path fill="#808285" d="M120.524,46.71l-3.688-4.714h-0.041v4.714h-0.787v-9.458c0.399-0.259,1.2-0.516,2.187-0.516
		c2.015,0,3.101,1.045,3.101,2.844c0,1.858-1.272,2.858-3.345,2.784v0.031l3.529,4.314H120.524z M118.138,37.237
		c-0.572,0-1.015,0.084-1.342,0.256v4.36c0.185,0.057,0.612,0.112,1.012,0.112c1.814,0,2.688-0.842,2.688-2.37
		C120.496,37.98,119.696,37.237,118.138,37.237"/>
	<polygon fill="#808285" points="123.355,46.71 123.355,36.878 127.685,36.878 127.685,37.436 124.169,37.436 124.169,41.324
		127.356,41.324 127.356,41.881 124.169,41.881 124.169,46.153 127.685,46.153 127.685,46.71 	"/>

		<rect x="151.545" y="20.637" transform="matrix(0.4241 0.9056 -0.9056 0.4241 114.8223 -127.3276)" fill="#00578E" width="11.949" height="11.952"/>

		<rect x="145.575" y="6.687" transform="matrix(0.4241 0.9056 -0.9056 0.4241 98.7479 -129.9546)" fill="#D8E0ED" width="11.953" height="11.953"/>

		<rect x="137.394" y="27.641" transform="matrix(0.424 0.9057 -0.9057 0.424 113.0267 -110.4802)" fill="#6B95BE" width="11.951" height="11.954"/>

		<rect x="168.03" y="35.041" transform="matrix(-0.456 -0.89 0.89 -0.456 215.2235 207.8537)" fill="#E48D1A" width="6.215" height="6.214"/>

		<rect x="175.955" y="31.865" transform="matrix(-0.4264 -0.9045 0.9045 -0.4264 222.9969 208.3487)" fill="#2DA343" width="3.209" height="3.208"/>

		<rect x="171.586" y="43.968" transform="matrix(-0.4256 -0.9049 0.9049 -0.4256 205.6702 221.7593)" fill="#E03A3E" width="3.268" height="3.268"/>
</g>
</svg>
